<!--?xml version="1.0" encoding="utf-8"?-->
<!-- Generator: Adobe Illustrator 22.0.1, SVG Export Plug-In . SVG Version: 6.00 Build 0)  -->
<svg version="1.1" id="_x31_0" xmlns="http://www.w3.org/2000/svg" xmlns:xlink="http://www.w3.org/1999/xlink" x="0px" y="0px" viewBox="0 0 512 512" style="width: 256px; height: 256px; opacity: 1;" xml:space="preserve">
<style type="text/css">
	.st0{fill:#374149;}
</style>
<g>
	<path class="st0" d="M404.647,0H107.35C78.373,0,54.803,23.57,54.803,52.547v406.906c0,28.977,23.57,52.547,52.547,52.547h297.297
		c28.976,0,52.55-23.57,52.55-52.547V52.547C457.197,23.57,433.623,0,404.647,0z M89.396,52.547c0-9.914,8.039-17.954,17.954-17.954
		h297.297c9.918,0,17.957,8.039,17.957,17.954v406.906c0,9.914-8.039,17.954-17.957,17.954H107.35
		c-9.914,0-17.954-8.039-17.954-17.954V52.547z" style="fill: rgb(75, 75, 75);"></path>
	<path class="st0" d="M361.151,107.41c0-3.356-2.719-6.07-6.074-6.07H156.924c-3.355,0-6.074,2.714-6.074,6.07v71.832h210.301
		V107.41z" style="fill: rgb(75, 75, 75);"></path>
	<path class="st0" d="M156.948,260.398h36.336c3.367,0,6.098-2.73,6.098-6.098v-36.492c0-3.367-2.73-6.098-6.098-6.098h-36.336
		c-3.367,0-6.098,2.73-6.098,6.098v36.492C150.85,257.668,153.58,260.398,156.948,260.398z" style="fill: rgb(75, 75, 75);"></path>
	<path class="st0" d="M274.166,211.711h-36.332c-3.371,0-6.102,2.73-6.102,6.098v36.492c0,3.367,2.73,6.098,6.102,6.098h36.332
		c3.367,0,6.098-2.73,6.098-6.098v-36.492C280.264,214.442,277.533,211.711,274.166,211.711z" style="fill: rgb(75, 75, 75);"></path>
	<path class="st0" d="M355.053,211.711h-36.336c-3.367,0-6.098,2.73-6.098,6.098v36.492c0,3.367,2.73,6.098,6.098,6.098h36.336
		c3.366,0,6.098-2.73,6.098-6.098v-36.492C361.151,214.442,358.42,211.711,355.053,211.711z" style="fill: rgb(75, 75, 75);"></path>
	<path class="st0" d="M156.948,341.558h36.336c3.367,0,6.098-2.73,6.098-6.098v-36.496c0-3.367-2.73-6.098-6.098-6.098h-36.336
		c-3.367,0-6.098,2.73-6.098,6.098v36.496C150.85,338.828,153.58,341.558,156.948,341.558z" style="fill: rgb(75, 75, 75);"></path>
	<path class="st0" d="M274.166,292.867h-36.332c-3.371,0-6.102,2.73-6.102,6.098v36.496c0,3.367,2.73,6.098,6.102,6.098h36.332
		c3.367,0,6.098-2.73,6.098-6.098v-36.496C280.264,295.598,277.533,292.867,274.166,292.867z" style="fill: rgb(75, 75, 75);"></path>
	<path class="st0" d="M156.948,422.715h36.336c3.367,0,6.098-2.731,6.098-6.102v-36.489c0-3.367-2.73-6.102-6.098-6.102h-36.336
		c-3.367,0-6.098,2.734-6.098,6.102v36.489C150.85,419.984,153.58,422.715,156.948,422.715z" style="fill: rgb(75, 75, 75);"></path>
	<path class="st0" d="M274.166,374.023h-36.332c-3.371,0-6.102,2.734-6.102,6.102v36.489c0,3.37,2.73,6.102,6.102,6.102h36.332
		c3.367,0,6.098-2.731,6.098-6.102v-36.489C280.264,376.758,277.533,374.023,274.166,374.023z" style="fill: rgb(75, 75, 75);"></path>
	<path class="st0" d="M355.053,292.867h-36.336c-3.367,0-6.098,2.73-6.098,6.098v36.492c0,0.371,0.148,0.688,0.21,1.043
		c-0.125,0.946-0.21,1.922-0.21,2.946v71.347c0,6.582,2.73,11.922,6.098,11.922h36.336c3.366,0,6.098-5.34,6.098-11.922v-71.347
		c0-1.024-0.086-2-0.211-2.946c0.062-0.355,0.211-0.672,0.211-1.043v-36.492C361.151,295.598,358.42,292.867,355.053,292.867z" style="fill: rgb(75, 75, 75);"></path>
</g>
</svg>
